<svg xmlns="http://www.w3.org/2000/svg" xmlns:xlink="http://www.w3.org/1999/xlink" version="1.1" width="630.95999pt" height="586.08pt" viewBox="0 0 630.95999 586.08">
<defs>
<clipPath id="clip_0">
<path transform="matrix(.24,0,0,.24,0,0)" d="M0 0H2629.1666V2438.6925H0Z" fill-rule="evenodd"/>
</clipPath>
<clipPath id="clip_1">
<path transform="matrix(.24,0,0,.24,0,0)" d="M0 0H2629.1666V2438.6925H0Z" fill-rule="evenodd"/>
</clipPath>
<clipPath id="clip_2">
<path transform="matrix(.24,0,0,.24,0,0)" d="M27.228423 25.486422H2585.8319V2404.1246H27.228423Z" fill-rule="evenodd"/>
</clipPath>
<clipPath id="clip_3">
<path transform="matrix(.24,0,0,.24,0,0)" d="M260.0439 1175.6235H667.41909V1627.9579H260.0439Z" fill-rule="evenodd"/>
</clipPath>
<clipPath id="clip_4">
<path transform="matrix(.24,0,0,.24,0,0)" d="M0 0H2629.1666V2438.6925H0Z" fill-rule="evenodd"/>
</clipPath>
<clipPath id="clip_5">
<path transform="matrix(.24,0,0,.24,0,0)" d="M1031.339 1332.3214H1438.7141V1784.6558H1031.339Z" fill-rule="evenodd"/>
</clipPath>
<clipPath id="clip_6">
<path transform="matrix(.24,0,0,.24,0,0)" d="M0 0H2629.1666V2438.6925H0Z" fill-rule="evenodd"/>
</clipPath>
<clipPath id="clip_7">
<path transform="matrix(.24,0,0,.24,0,0)" d="M1768.5048 1175.6235H2175.88V1627.9579H1768.5048Z" fill-rule="evenodd"/>
</clipPath>
<clipPath id="clip_8">
<path transform="matrix(.24,0,0,.24,0,0)" d="M0 0H2629.1666V2438.6925H0Z" fill-rule="evenodd"/>
</clipPath>
<clipPath id="clip_9">
<path transform="matrix(.24,0,0,.24,0,0)" d="M0 0H2629.1666V2438.6925H0Z"/>
</clipPath>
<clipPath id="clip_10">
<path transform="matrix(.24,0,0,.24,0,0)" d="M0 0H2629.1666V2444.9376H0Z"/>
</clipPath>
<clipPath id="clip_11">
<path transform="matrix(.24,0,0,.24,0,0)" d="M754.87057 1359.0571H943.88308V1403.4752H754.87057Z"/>
</clipPath>
<clipPath id="clip_12">
<path transform="matrix(.24,0,0,.24,0,0)" d="M754.87057 1367.9408H883.39907V1359.0571L943.88308 1381.2661 883.39907 1403.4752V1394.5916H754.87057V1367.9408Z"/>
</clipPath>
<clipPath id="clip_13">
<path transform="matrix(.24,0,0,.24,0,0)" d="M0 0H2629.1666V2438.6925H0Z"/>
</clipPath>
<clipPath id="clip_14">
<path transform="matrix(.24,0,0,.24,0,0)" d="M0 0H2629.1666V2444.9376H0Z"/>
</clipPath>
<clipPath id="clip_15">
<path transform="matrix(.24,0,0,.24,0,0)" d="M313.2211 875.8771H502.23365V920.29519H313.2211Z"/>
</clipPath>
<clipPath id="clip_16">
<path transform="matrix(.24,0,0,.24,0,0)" d="M502.23365 911.41159H373.70515V920.29519L313.2211 898.0861 373.70515 875.8771V884.7607H502.23365V911.41159Z"/>
</clipPath>
<clipPath id="clip_17">
<path transform="matrix(.24,0,0,.24,0,0)" d="M1022.81448 496.92277H1430.1897V949.2571H1022.81448Z" fill-rule="evenodd"/>
</clipPath>
<clipPath id="clip_18">
<path transform="matrix(.24,0,0,.24,0,0)" d="M0 0H2629.1666V2438.6925H0Z" fill-rule="evenodd"/>
</clipPath>
<clipPath id="clip_19">
<path transform="matrix(.24,0,0,.24,0,0)" d="M0 0H2629.1666V2438.6925H0Z"/>
</clipPath>
<clipPath id="clip_20">
<path transform="matrix(.24,0,0,.24,0,0)" d="M0 0H2629.1666V2444.9376H0Z"/>
</clipPath>
<clipPath id="clip_21">
<path transform="matrix(.24,0,0,.24,0,0)" d="M1204.2813 1015.0986H1248.6879V1204.1602H1204.2813Z"/>
</clipPath>
<clipPath id="clip_22">
<path transform="matrix(.24,0,0,.24,0,0)" d="M1239.8065 1015.0986V1143.6604H1248.6879L1226.4846 1204.1602 1204.2813 1143.6604H1213.1626V1015.0986H1239.8065Z"/>
</clipPath>
<clipPath id="clip_23">
<path transform="matrix(.24,0,0,.24,0,0)" d="M0 0H2629.1666V2438.6925H0Z" fill-rule="evenodd"/>
</clipPath>
<clipPath id="clip_24">
<path transform="matrix(.24,0,0,.24,0,0)" d="M0 0H2629.1666V2438.6925H0Z"/>
</clipPath>
<clipPath id="clip_25">
<path transform="matrix(.24,0,0,.24,0,0)" d="M0 0H2629.1666V2444.9376H0Z"/>
</clipPath>
<clipPath id="clip_26">
<path transform="matrix(.24,0,0,.24,0,0)" d="M953.26156 1019.51107 819.6095 1153.1978 788.2093 1121.7894 921.8613 988.1027 953.26156 1019.51107Z"/>
</clipPath>
<clipPath id="clip_27">
<path transform="matrix(.24,0,0,.24,0,0)" d="M946.9815 1013.2294 856.0981 1104.1364 862.3782 1110.418 803.9094 1137.4937 830.97799 1079.0097 837.258 1085.2914 928.1414 994.3844 946.9815 1013.2294Z"/>
</clipPath>
<clipPath id="clip_28">
<path transform="matrix(.24,0,0,.24,0,0)" d="M0 0H2629.1666V2438.6925H0Z"/>
</clipPath>
<clipPath id="clip_29">
<path transform="matrix(.24,0,0,.24,0,0)" d="M0 0H2629.1666V2444.9376H0Z"/>
</clipPath>
<clipPath id="clip_30">
<path transform="matrix(.24,0,0,.24,0,0)" d="M1533.5432 990.91366 1667.1953 1124.6004 1635.795 1156.0087 1502.1431 1022.32199 1533.5432 990.91366Z"/>
</clipPath>
<clipPath id="clip_31">
<path transform="matrix(.24,0,0,.24,0,0)" d="M1527.2632 997.1953 1618.1466 1088.1023 1624.4266 1081.8206 1651.4951 1140.3046 1593.0264 1113.229 1599.3064 1106.9473 1508.4231 1016.0403 1527.2632 997.1953Z"/>
</clipPath>
<clipPath id="clip_32">
<path transform="matrix(.24,0,0,.24,0,0)" d="M0 0H2629.1666V2438.6925H0Z" fill-rule="evenodd"/>
</clipPath>
<clipPath id="clip_33">
<path transform="matrix(.24,0,0,.24,0,0)" d="M0 0H2629.1666V2438.6925H0Z"/>
</clipPath>
<clipPath id="clip_34">
<path transform="matrix(.24,0,0,.24,0,0)" d="M0 0H2629.1666V2444.9376H0Z"/>
</clipPath>
<clipPath id="clip_35">
<path transform="matrix(.24,0,0,.24,0,0)" d="M313.2211 970.7016H502.23365V1015.1197H313.2211Z"/>
</clipPath>
<clipPath id="clip_36">
<path transform="matrix(.24,0,0,.24,0,0)" d="M502.23365 1006.2361H373.70515V1015.1197L313.2211 992.91067 373.70515 970.7016V979.5852H502.23365V1006.2361Z"/>
</clipPath>
<clipPath id="clip_37">
<path transform="matrix(.24,0,0,.24,0,0)" d="M0 0H2629.1666V2438.6925H0Z" fill-rule="evenodd"/>
</clipPath>
<clipPath id="clip_38">
<path transform="matrix(.24,0,0,.24,0,0)" d="M0 0H2629.1666V2438.6925H0Z"/>
</clipPath>
<clipPath id="clip_39">
<path transform="matrix(.24,0,0,.24,0,0)" d="M0 0H2629.1666V2444.9376H0Z"/>
</clipPath>
<clipPath id="clip_40">
<path transform="matrix(.24,0,0,.24,0,0)" d="M1489.9755 1359.0571H1678.988V1403.4752H1489.9755Z"/>
</clipPath>
<clipPath id="clip_41">
<path transform="matrix(.24,0,0,.24,0,0)" d="M1489.9755 1367.9408H1618.504V1359.0571L1678.988 1381.2661 1618.504 1403.4752V1394.5916H1489.9755V1367.9408Z"/>
</clipPath>
<clipPath id="clip_42">
<path transform="matrix(.24,0,0,.24,0,0)" d="M0 0H2629.1666V2438.6925H0Z" fill-rule="evenodd"/>
</clipPath>
<clipPath id="clip_43">
<path transform="matrix(.24,0,0,.24,0,0)" d="M0 0H2629.1666V2438.6925H0Z"/>
</clipPath>
<clipPath id="clip_44">
<path transform="matrix(.24,0,0,.24,0,0)" d="M0 0H2629.1666V2444.9376H0Z"/>
</clipPath>
<clipPath id="clip_45">
<path transform="matrix(.24,0,0,.24,0,0)" d="M1489.9755 1629.5379H1678.988V1673.9559H1489.9755Z"/>
</clipPath>
<clipPath id="clip_46">
<path transform="matrix(.24,0,0,.24,0,0)" d="M1489.9755 1638.4215H1618.504V1629.5379L1678.988 1651.7468 1618.504 1673.9559V1665.0723H1489.9755V1638.4215Z"/>
</clipPath>
<clipPath id="clip_47">
<path transform="matrix(.24,0,0,.24,0,0)" d="M0 0H2629.1666V2438.6925H0Z" fill-rule="evenodd"/>
</clipPath>
<clipPath id="clip_48">
<path transform="matrix(.24,0,0,.24,0,0)" d="M0 0H2629.1666V2438.6925H0Z"/>
</clipPath>
<clipPath id="clip_49">
<path transform="matrix(.24,0,0,.24,0,0)" d="M0 0H2629.1666V2444.9376H0Z"/>
</clipPath>
<clipPath id="clip_50">
<path transform="matrix(.24,0,0,.24,0,0)" d="M1212.8057 1851.6528H1257.2123V2040.7145H1212.8057Z"/>
</clipPath>
<clipPath id="clip_51">
<path transform="matrix(.24,0,0,.24,0,0)" d="M1248.3309 1851.6528V1980.2147H1257.2123L1235.009 2040.7145 1212.8057 1980.2147H1221.687V1851.6528H1248.3309Z"/>
</clipPath>
<clipPath id="clip_52">
<path transform="matrix(.24,0,0,.24,0,0)" d="M0 0H2629.1666V2438.6925H0Z" fill-rule="evenodd"/>
</clipPath>
</defs>
<g clip-path="url(#clip_0)">
<path transform="matrix(.7494061,0,0,.7494061,0,0)" d="M0 0H842V783H0Z" fill="#ffffff"/>
</g>
<g clip-path="url(#clip_1)">
<path transform="matrix(.7494061,0,0,.7496006,0,0)" d="M0 0H842V782.7969H0Z" fill="#f2f2f2"/>
</g>
<g clip-path="url(#clip_2)">
<path transform="matrix(.05735131,0,0,.0573662,6.534821,6.116741)" d="M0 0H10707.075V9951.386H0Z" fill="#ffffff"/>
</g>
<g clip-path="url(#clip_3)">
<path transform="matrix(.057351296,0,0,.05736618,62.410539,282.14964)" d="M0 0H1704.7573V1892.4085H0Z" fill="#2d9bf0"/>
<path transform="matrix(.057351296,0,0,.05736618,62.410539,282.14964)" stroke-width="6" stroke-linecap="butt" stroke-miterlimit="4" stroke-linejoin="miter" fill="none" stroke="#2d9bf0" d="M0 0H1704.7573V1892.4085H0Z"/>
</g>
<g clip-path="url(#clip_4)">
<text fill="#ffffff" xml:space="preserve" transform="matrix(.057351296 0 0 .05736618 67.29904 287.03944)" font-size="201" font-family="OpenSans"><tspan y="787.9663" x="147.45623 258.60923 370.36524 466.24226 571.7673">Task-</tspan></text>
<text fill="#ffffff" xml:space="preserve" transform="matrix(.057351296 0 0 .05736618 67.29904 287.03944)" font-size="201" font-family="OpenSans"><tspan y="787.9663" x="636.48928"> </tspan></text>
<text fill="#ffffff" xml:space="preserve" transform="matrix(.057351296 0 0 .05736618 67.29904 287.03944)" font-size="201" font-family="OpenSans"><tspan y="787.9663" x="636.51046 707.46347 789.47146 901.2274 996.90347 1102.4285 1153.2815 1276.6956 1386.8435">tracking&#x00a0;</tspan></text>
<text fill="#ffffff" xml:space="preserve" transform="matrix(.057351296 0 0 .05736618 67.29904 287.03944)" font-size="201" font-family="OpenSans"><tspan y="1061.9663" x="441.79167 537.66867 650.4296 732.4376 833.1386 883.99166 979.66769">service</tspan></text>
</g>
<g clip-path="url(#clip_5)">
<path transform="matrix(.057351296,0,0,.05736618,247.52135,319.75715)" d="M0 0H1704.7573V1892.4085H0Z" fill="#2d9bf0"/>
<path transform="matrix(.057351296,0,0,.05736618,247.52135,319.75715)" stroke-width="6" stroke-linecap="butt" stroke-miterlimit="4" stroke-linejoin="miter" fill="none" stroke="#2d9bf0" d="M0 0H1704.7573V1892.4085H0Z"/>
</g>
<g clip-path="url(#clip_6)">
<text fill="#ffffff" xml:space="preserve" transform="matrix(.057351296 0 0 .05736618 252.40984 324.6469)" font-size="201" font-family="OpenSans"><tspan y="787.9663" x="246.14055 373.37355 469.04954 564.7255 686.1295 809.5435 932.9575 1003.9105 1054.7636 1178.1775 1288.3255">Accounting&#x00a0;</tspan></text>
<text fill="#ffffff" xml:space="preserve" transform="matrix(.057351296 0 0 .05736618 252.40984 324.6469)" font-size="201" font-family="OpenSans"><tspan y="1061.9663" x="441.79167 537.66867 650.4296 732.4376 833.1386 883.99166 979.66769">service</tspan></text>
</g>
<g clip-path="url(#clip_7)">
<path transform="matrix(.057351296,0,0,.05736618,424.44114,282.14964)" d="M0 0H1704.7573V1892.4085H0Z" fill="#2d9bf0"/>
<path transform="matrix(.057351296,0,0,.05736618,424.44114,282.14964)" stroke-width="6" stroke-linecap="butt" stroke-miterlimit="4" stroke-linejoin="miter" fill="none" stroke="#2d9bf0" d="M0 0H1704.7573V1892.4085H0Z"/>
</g>
<g clip-path="url(#clip_8)">
<text fill="#ffffff" xml:space="preserve" transform="matrix(.057351296 0 0 .05736618 429.32966 287.03944)" font-size="201" font-family="OpenSans"><tspan y="924.9663" x="1.7606642 128.99367 252.40767 364.1637 415.0167 516.3207 587.2737 638.1267 733.80276 829.67977 881.93978 977.8168 1090.5778 1172.5858 1273.2869 1324.1399 1419.8159">Analytics service</tspan></text>
<text fill="#1a1a1a" xml:space="preserve" transform="matrix(1.1797979 0 0 1.180104 179.32538 72.68127)" font-size="14" font-family="OpenSans"><tspan y="14" x="0 8.862 15.526001 24.402 33.278 40.614 49.196 57.652 66.528 75.404 86.184 94.038 97.678 104.944 113.4 123.69 133.98 141.036 149.912 158.78801 166.05402 173.83802 182.60202 191.47803">&#x0410;&#x0441;&#x0438;&#x043d;&#x0445;&#x0440;&#x043e;&#x043d;&#x043d;&#x044b;&#x0435; &#x043a;&#x043e;&#x043c;&#x043c;&#x0443;&#x043d;&#x0438;&#x043a;&#x0430;&#x0446;&#x0438;&#x0438;</tspan></text>
</g>
<g clip-path="url(#clip_9)">
<g clip-path="url(#clip_10)">
<g clip-path="url(#clip_11)">
<g clip-path="url(#clip_12)">
<path transform="matrix(.057351296,0,0,.05736618,181.16893,326.1737)" d="M0 37.165945H537.85787V0L790.96749 92.914859 537.85787 185.82971V148.66378H0V37.165945Z" fill="#f24726" fill-rule="evenodd"/>
<path transform="matrix(.057351296,0,0,.05736618,181.16893,326.1737)" stroke-width="4" stroke-linecap="butt" stroke-miterlimit="4" stroke-linejoin="miter" fill="none" stroke="#1a1a1a" d="M0 37.165945H537.85787V0L790.96749 92.914859 537.85787 185.82971V148.66378H0V37.165945Z"/>
</g>
</g>
</g>
</g>
<g clip-path="url(#clip_13)">
<g clip-path="url(#clip_14)">
<g clip-path="url(#clip_15)">
<g clip-path="url(#clip_16)">
<path transform="matrix(-.057351296,-.00000000000000000702533,.000000000000000007023508,-.05736618,120.53607,220.87084)" d="M0 37.165945H537.85787V0L790.96749 92.914859 537.85787 185.82971V148.66378H0V37.165945Z" fill="#f24726" fill-rule="evenodd"/>
<path transform="matrix(-.057351296,-.00000000000000000702533,.000000000000000007023508,-.05736618,120.53607,220.87084)" stroke-width="4" stroke-linecap="butt" stroke-miterlimit="4" stroke-linejoin="miter" fill="none" stroke="#1a1a1a" d="M0 37.165945H537.85787V0L790.96749 92.914859 537.85787 185.82971V148.66378H0V37.165945Z"/>
</g>
</g>
</g>
</g>
<g clip-path="url(#clip_17)">
<path transform="matrix(.057351296,0,0,.05736618,245.47547,119.26146)" d="M0 0H1704.7573V1892.4085H0Z" fill="#2d9bf0"/>
<path transform="matrix(.057351296,0,0,.05736618,245.47547,119.26146)" stroke-width="6" stroke-linecap="butt" stroke-miterlimit="4" stroke-linejoin="miter" fill="none" stroke="#2d9bf0" d="M0 0H1704.7573V1892.4085H0Z"/>
</g>
<g clip-path="url(#clip_18)">
<text fill="#ffffff" xml:space="preserve" transform="matrix(.057351296 0 0 .05736618 250.36397 124.151218)" font-size="201" font-family="OpenSans"><tspan y="924.9663" x="193.24065 320.47364 443.88764 514.84066 638.25466 690.51467 786.39169 899.15267 981.16067 1081.8617 1132.7147 1228.3908">Auth service</tspan></text>
</g>
<g clip-path="url(#clip_19)">
<g clip-path="url(#clip_20)">
<g clip-path="url(#clip_21)">
<g clip-path="url(#clip_22)">
<path transform="matrix(-.000000000000000010535261,.05736618,-.057351296,-.000000000000000010537997,299.6851,243.62366)" d="M0 37.165945H537.85787V0L790.96749 92.914859 537.85787 185.82971V148.66378H0V37.165945Z" fill="#f24726" fill-rule="evenodd"/>
<path transform="matrix(-.000000000000000010535261,.05736618,-.057351296,-.000000000000000010537997,299.6851,243.62366)" stroke-width="4" stroke-linecap="butt" stroke-miterlimit="4" stroke-linejoin="miter" fill="none" stroke="#1a1a1a" d="M0 37.165945H537.85787V0L790.96749 92.914859 537.85787 185.82971V148.66378H0V37.165945Z"/>
</g>
</g>
</g>
</g>
<g clip-path="url(#clip_23)">
<text fill="#1a1a1a" xml:space="preserve" transform="matrix(.81930419 0 0 .8195168 238.31577 227.42595)" font-size="14" font-family="OpenSans"><tspan y="14" x="0 10.668 17.43 27.720002 35.574 44.45 52.304 61.18 70.056 77.91 81.55 89.55801 97.34201 106.21801 115.09401 125.87401 133.21">&#x0418;&#x0437;&#x043c;&#x0435;&#x043d;&#x0435;&#x043d;&#x0438;&#x0435; &#x0434;&#x0430;&#x043d;&#x043d;&#x044b;&#x0445;&#x00a0;</tspan></text>
<text fill="#1a1a1a" xml:space="preserve" transform="matrix(.81930419 0 0 .8195168 238.31577 227.42595)" font-size="14" font-family="OpenSans"><tspan y="34" x="0 10.206 18.662 27.356 34.412004 40.404005">&#x041f;&#x043e;&#x043f;&#x0443;&#x0433;&#x0430;</tspan></text>
</g>
<g clip-path="url(#clip_24)">
<g clip-path="url(#clip_25)">
<g clip-path="url(#clip_26)">
<g clip-path="url(#clip_27)">
<path transform="matrix(-.04055349,.040564017,-.04055349,-.040564017,228.78276,244.68265)" d="M0 37.165945H537.85787V0L790.96749 92.914859 537.85787 185.82971V148.66378H0V37.165945Z" fill="#f24726" fill-rule="evenodd"/>
<path transform="matrix(-.04055349,.040564017,-.04055349,-.040564017,228.78276,244.68265)" stroke-width="4" stroke-linecap="butt" stroke-miterlimit="4" stroke-linejoin="miter" fill="none" stroke="#1a1a1a" d="M0 37.165945H537.85787V0L790.96749 92.914859 537.85787 185.82971V148.66378H0V37.165945Z"/>
</g>
</g>
</g>
</g>
<g clip-path="url(#clip_28)">
<g clip-path="url(#clip_29)">
<g clip-path="url(#clip_30)">
<g clip-path="url(#clip_31)">
<path transform="matrix(.04055349,.040564017,-.04055349,.040564017,368.05036,237.81926)" d="M0 37.165945H537.85787V0L790.96749 92.914859 537.85787 185.82971V148.66378H0V37.165945Z" fill="#f24726" fill-rule="evenodd"/>
<path transform="matrix(.04055349,.040564017,-.04055349,.040564017,368.05036,237.81926)" stroke-width="4" stroke-linecap="butt" stroke-miterlimit="4" stroke-linejoin="miter" fill="none" stroke="#1a1a1a" d="M0 37.165945H537.85787V0L790.96749 92.914859 537.85787 185.82971V148.66378H0V37.165945Z"/>
</g>
</g>
</g>
</g>
<g clip-path="url(#clip_32)">
<text fill="#1a1a1a" xml:space="preserve" transform="matrix(.7931735 0 0 .7933793 166.52346 296.7648)" font-size="14" font-family="OpenSans"><tspan y="14" x="0 8.834001 17.29 24.052002 32.06 39.844 48.72 57.596 65.450008 68.880008">&#x0421;&#x043e;&#x0437;&#x0434;&#x0430;&#x043d;&#x0438;&#x0435;,&#x00a0;</tspan></text>
<text fill="#1a1a1a" xml:space="preserve" transform="matrix(.7931735 0 0 .7933793 166.52346 296.7648)" font-size="14" font-family="OpenSans"><tspan y="34" x="0 7.784001 16.478 24.486 32.34 41.216 47.753999 51.393999 57.932 65.716 72.380008 79.646 88.522 91.952">&#x0430;&#x043f;&#x0434;&#x0435;&#x0439;&#x0442; &#x0442;&#x0430;&#x0441;&#x043a;&#x0438;,&#x00a0;</tspan></text>
<text fill="#1a1a1a" xml:space="preserve" transform="matrix(.7931735 0 0 .7933793 166.52346 296.7648)" font-size="14" font-family="OpenSans"><tspan y="54" x="0 7.966 11.606001 18.144001 21.868 30.380002 34.104">&#x0432; &#x0442;.&#x0447;.&#x00a0;</tspan></text>
<text fill="#1a1a1a" xml:space="preserve" transform="matrix(.7931735 0 0 .7933793 166.52346 296.7648)" font-size="14" font-family="OpenSans"><tspan y="74" x="0 7.966 18.746 27.44 35.896 43.89 52.766 60.62 69.496 78.372 86.226009">&#x0432;&#x044b;&#x043f;&#x043e;&#x043b;&#x043d;&#x0435;&#x043d;&#x0438;&#x0435;&#x00a0;</tspan></text>
<text fill="#1a1a1a" xml:space="preserve" transform="matrix(.7931735 0 0 .7933793 166.52346 296.7648)" font-size="14" font-family="OpenSans"><tspan y="94" x="0 8.008 16.002 23.772002 27.412003 35.406003 43.862005 49.854005 58.310007">&#x0434;&#x043b;&#x044f; &#x043b;&#x043e;&#x0433;&#x043e;&#x0432;</tspan></text>
</g>
<g clip-path="url(#clip_33)">
<g clip-path="url(#clip_34)">
<g clip-path="url(#clip_35)">
<g clip-path="url(#clip_36)">
<path transform="matrix(-.057351296,-.00000000000000000702533,.000000000000000007023508,-.05736618,120.53607,243.62873)" d="M0 37.165945H537.85787V0L790.96749 92.914859 537.85787 185.82971V148.66378H0V37.165945Z" fill="#2d9bf0" fill-rule="evenodd"/>
<path transform="matrix(-.057351296,-.00000000000000000702533,.000000000000000007023508,-.05736618,120.53607,243.62873)" stroke-width="4" stroke-linecap="butt" stroke-miterlimit="4" stroke-linejoin="miter" fill="none" stroke="#1a1a1a" d="M0 37.165945H537.85787V0L790.96749 92.914859 537.85787 185.82971V148.66378H0V37.165945Z"/>
</g>
</g>
</g>
</g>
<g clip-path="url(#clip_37)">
<text fill="#1a1a1a" xml:space="preserve" transform="matrix(.81930419 0 0 .8195168 135.51224 204.87796)" font-size="14" font-family="OpenSans"><tspan y="14" x="0 8.834001 19.026001">CUD</tspan></text>
<text fill="#1a1a1a" xml:space="preserve" transform="matrix(.81930419 0 0 .8195168 135.51224 227.42595)" font-size="14" font-family="OpenSans"><tspan y="14" x="0 9.0720009">BE</tspan></text>
</g>
<g clip-path="url(#clip_38)">
<g clip-path="url(#clip_39)">
<g clip-path="url(#clip_40)">
<g clip-path="url(#clip_41)">
<path transform="matrix(.057351296,0,0,.05736618,357.59413,326.1737)" d="M0 37.165945H537.85787V0L790.96749 92.914859 537.85787 185.82971V148.66378H0V37.165945Z" fill="#f24726" fill-rule="evenodd"/>
<path transform="matrix(.057351296,0,0,.05736618,357.59413,326.1737)" stroke-width="4" stroke-linecap="butt" stroke-miterlimit="4" stroke-linejoin="miter" fill="none" stroke="#1a1a1a" d="M0 37.165945H537.85787V0L790.96749 92.914859 537.85787 185.82971V148.66378H0V37.165945Z"/>
</g>
</g>
</g>
</g>
<g clip-path="url(#clip_42)">
<text fill="#1a1a1a" xml:space="preserve" transform="matrix(.6554433 0 0 .6556134 349.4308 301.73445)" font-size="14" font-family="OpenSans"><tspan y="14" x="0 10.668 17.43 27.720002 35.574 44.45 52.304 61.18 70.056 77.91">&#x0418;&#x0437;&#x043c;&#x0435;&#x043d;&#x0435;&#x043d;&#x0438;&#x0435;&#x00a0;</tspan></text>
<text fill="#1a1a1a" xml:space="preserve" transform="matrix(.6554433 0 0 .6556134 349.4308 301.73445)" font-size="14" font-family="OpenSans"><tspan y="34" x="0 7.784001 14.840001 22.848002 31.724003 38.262 42.77 50.764 59.22 65.212009">&#x0430;&#x0443;&#x0434;&#x0438;&#x0442;-&#x043b;&#x043e;&#x0433;&#x0430;</tspan></text>
</g>
<g clip-path="url(#clip_43)">
<g clip-path="url(#clip_44)">
<g clip-path="url(#clip_45)">
<g clip-path="url(#clip_46)">
<path transform="matrix(.057351296,0,0,.05736618,357.59413,391.08909)" d="M0 37.165945H537.85787V0L790.96749 92.914859 537.85787 185.82971V148.66378H0V37.165945Z" fill="#f24726" fill-rule="evenodd"/>
<path transform="matrix(.057351296,0,0,.05736618,357.59413,391.08909)" stroke-width="4" stroke-linecap="butt" stroke-miterlimit="4" stroke-linejoin="miter" fill="none" stroke="#1a1a1a" d="M0 37.165945H537.85787V0L790.96749 92.914859 537.85787 185.82971V148.66378H0V37.165945Z"/>
</g>
</g>
</g>
</g>
<g clip-path="url(#clip_47)">
<text fill="#1a1a1a" xml:space="preserve" transform="matrix(.6554433 0 0 .6556134 351.39424 359.61857)" font-size="14" font-family="OpenSans"><tspan y="14" x="0 8.428 16.212002 22.876002 31.388003 39.242006 45.780008 49.420007 57.876008 66.22001 78.77801 86.63201 92.62401 101.08001">&#x0420;&#x0430;&#x0441;&#x0447;&#x0435;&#x0442; &#x043e;&#x0431;&#x0449;&#x0435;&#x0433;&#x043e;&#x00a0;</tspan></text>
<text fill="#1a1a1a" xml:space="preserve" transform="matrix(.6554433 0 0 .6556134 351.39424 359.61857)" font-size="14" font-family="OpenSans"><tspan y="34" x="0 7.9940006 16.45 22.442002 30.226002 33.866 42.448 49.504 56.770006 65.226009 73.19201 81.64801 89.65601 97.42601">&#x043b;&#x043e;&#x0433;&#x0430; &#x0440;&#x0443;&#x043a;&#x043e;&#x0432;&#x043e;&#x0434;&#x044f;&#x0433;</tspan></text>
</g>
<g clip-path="url(#clip_48)">
<g clip-path="url(#clip_49)">
<g clip-path="url(#clip_50)">
<g clip-path="url(#clip_51)">
<path transform="matrix(.000000000000000003511754,.05736618,-.057351296,.000000000000000003512665,301.73094,444.39668)" d="M0 37.165945H537.85787V0L790.96749 92.914859 537.85787 185.82971V148.66378H0V37.165945Z" fill="#2d9bf0" fill-rule="evenodd"/>
<path transform="matrix(.000000000000000003511754,.05736618,-.057351296,.000000000000000003512665,301.73094,444.39668)" stroke-width="4" stroke-linecap="butt" stroke-miterlimit="4" stroke-linejoin="miter" fill="none" stroke="#1a1a1a" d="M0 37.165945H537.85787V0L790.96749 92.914859 537.85787 185.82971V148.66378H0V37.165945Z"/>
</g>
</g>
</g>
</g>
<g clip-path="url(#clip_52)">
<text fill="#1a1a1a" xml:space="preserve" transform="matrix(.6554433 0 0 .6556134 310.63404 449.6456)" font-size="14" font-family="OpenSans"><tspan y="14" x="0 9.0720009 19.852002 28.546002 36.54 44.324 50.862 58.646">&#x0412;&#x044b;&#x043f;&#x043b;&#x0430;&#x0442;&#x0430;&#x00a0;</tspan></text>
<text fill="#1a1a1a" xml:space="preserve" transform="matrix(.6554433 0 0 .6556134 310.63404 449.6456)" font-size="14" font-family="OpenSans"><tspan y="34" x="0 10.304001 18.088002 26.082 34.538003 42.504 50.288003 59.164 67.452 75.222">&#x0436;&#x0430;&#x043b;&#x043e;&#x0432;&#x0430;&#x043d;&#x044c;&#x044f;&#x00a0;</tspan></text>
<text fill="#1a1a1a" xml:space="preserve" transform="matrix(.6554433 0 0 .6556134 310.63404 449.6456)" font-size="14" font-family="OpenSans"><tspan y="54" x="0 10.206 18.662 27.356 34.412004 40.404005 47.460004 51.968004 60.550004 68.33401 76.67801 85.13401 91.67201 99.44201 105.434009">&#x041f;&#x043e;&#x043f;&#x0443;&#x0433;&#x0443;-&#x0440;&#x0430;&#x0431;&#x043e;&#x0442;&#x044f;&#x0433;&#x0435;</tspan></text>
</g>
</svg>
