<svg xmlns="http://www.w3.org/2000/svg" xmlns:xlink="http://www.w3.org/1999/xlink" version="1.1" width="630.95999pt" height="510pt" viewBox="0 0 630.95999 510">
<defs>
<clipPath id="clip_0">
<path transform="matrix(.24,0,0,.24,0,0)" d="M0 0H2629.1666V2123.3175H0Z" fill-rule="evenodd"/>
</clipPath>
<clipPath id="clip_1">
<path transform="matrix(.24,0,0,.24,0,0)" d="M0 0H2629.1666V2123.3175H0Z" fill-rule="evenodd"/>
</clipPath>
<clipPath id="clip_2">
<path transform="matrix(.24,0,0,.24,0,0)" d="M37.96991 36.247079H2613.1485V2078.4063H37.96991Z" fill-rule="evenodd"/>
</clipPath>
<clipPath id="clip_3">
<path transform="matrix(.24,0,0,.24,0,0)" d="M497.1997 1042.8847H854.3506V1439.6311H497.1997Z" fill-rule="evenodd"/>
</clipPath>
<clipPath id="clip_4">
<path transform="matrix(.24,0,0,.24,0,0)" d="M0 0H2629.1666V2123.3175H0Z" fill-rule="evenodd"/>
</clipPath>
<clipPath id="clip_5">
<path transform="matrix(.24,0,0,.24,0,0)" d="M1173.4138 1180.311H1530.5647V1577.0575H1173.4138Z" fill-rule="evenodd"/>
</clipPath>
<clipPath id="clip_6">
<path transform="matrix(.24,0,0,.24,0,0)" d="M0 0H2629.1666V2123.3175H0Z" fill-rule="evenodd"/>
</clipPath>
<clipPath id="clip_7">
<path transform="matrix(.24,0,0,.24,0,0)" d="M1819.7142 1042.8847H2176.865V1439.6311H1819.7142Z" fill-rule="evenodd"/>
</clipPath>
<clipPath id="clip_8">
<path transform="matrix(.24,0,0,.24,0,0)" d="M0 0H2629.1666V2123.3175H0Z" fill-rule="evenodd"/>
</clipPath>
<clipPath id="clip_9">
<path transform="matrix(.24,0,0,.24,0,0)" d="M0 0H2629.1666V2123.3175H0Z"/>
</clipPath>
<clipPath id="clip_10">
<path transform="matrix(.24,0,0,.24,0,0)" d="M0 0H2629.1666V2126.44H0Z"/>
</clipPath>
<clipPath id="clip_11">
<path transform="matrix(.24,0,0,.24,0,0)" d="M931.04348 1203.7778H1096.753V1242.7373H931.04348Z"/>
</clipPath>
<clipPath id="clip_12">
<path transform="matrix(.24,0,0,.24,0,0)" d="M931.04348 1211.5697H1043.726V1203.7778L1096.753 1223.2576 1043.726 1242.7373V1234.9454H931.04348V1211.5697Z"/>
</clipPath>
<clipPath id="clip_13">
<path transform="matrix(.24,0,0,.24,0,0)" d="M0 0H2629.1666V2123.3175H0Z"/>
</clipPath>
<clipPath id="clip_14">
<path transform="matrix(.24,0,0,.24,0,0)" d="M0 0H2629.1666V2126.44H0Z"/>
</clipPath>
<clipPath id="clip_15">
<path transform="matrix(.24,0,0,.24,0,0)" d="M545.6931 779.96847H711.4027V818.9279H545.6931Z"/>
</clipPath>
<clipPath id="clip_16">
<path transform="matrix(.24,0,0,.24,0,0)" d="M711.4027 811.13607H598.72018V818.9279L545.6931 799.4482 598.72018 779.96847V787.7603H711.4027V811.13607Z"/>
</clipPath>
<clipPath id="clip_17">
<path transform="matrix(.24,0,0,.24,0,0)" d="M1165.9198 447.55763H1523.0707V844.3041H1165.9198Z" fill-rule="evenodd"/>
</clipPath>
<clipPath id="clip_18">
<path transform="matrix(.24,0,0,.24,0,0)" d="M0 0H2629.1666V2123.3175H0Z" fill-rule="evenodd"/>
</clipPath>
<clipPath id="clip_19">
<path transform="matrix(.24,0,0,.24,0,0)" d="M0 0H2629.1666V2123.3175H0Z"/>
</clipPath>
<clipPath id="clip_20">
<path transform="matrix(.24,0,0,.24,0,0)" d="M0 0H2629.1666V2126.44H0Z"/>
</clipPath>
<clipPath id="clip_21">
<path transform="matrix(.24,0,0,.24,0,0)" d="M1325.0457 902.0816H1363.9774V1067.9092H1325.0457Z"/>
</clipPath>
<clipPath id="clip_22">
<path transform="matrix(.24,0,0,.24,0,0)" d="M1356.191 902.0816V1014.84439H1363.9774L1344.5115 1067.9092 1325.0457 1014.84439H1332.832V902.0816H1356.191Z"/>
</clipPath>
<clipPath id="clip_23">
<path transform="matrix(.24,0,0,.24,0,0)" d="M0 0H2629.1666V2123.3175H0Z" fill-rule="evenodd"/>
</clipPath>
<clipPath id="clip_24">
<path transform="matrix(.24,0,0,.24,0,0)" d="M0 0H2629.1666V2123.3175H0Z"/>
</clipPath>
<clipPath id="clip_25">
<path transform="matrix(.24,0,0,.24,0,0)" d="M0 0H2629.1666V2126.44H0Z"/>
</clipPath>
<clipPath id="clip_26">
<path transform="matrix(.24,0,0,.24,0,0)" d="M1104.9544 905.92489 987.77999 1023.1827 960.25106 995.63418 1077.4254 878.37637 1104.9544 905.92489Z"/>
</clipPath>
<clipPath id="clip_27">
<path transform="matrix(.24,0,0,.24,0,0)" d="M1099.4486 900.41519 1019.76998 980.15048 1025.2758 985.66018 974.0155 1009.4084 997.7468 958.11166 1003.2526 963.62136 1082.9312 883.88607 1099.4486 900.41519Z"/>
</clipPath>
<clipPath id="clip_28">
<path transform="matrix(.24,0,0,.24,0,0)" d="M0 0H2629.1666V2123.3175H0Z"/>
</clipPath>
<clipPath id="clip_29">
<path transform="matrix(.24,0,0,.24,0,0)" d="M0 0H2629.1666V2126.44H0Z"/>
</clipPath>
<clipPath id="clip_30">
<path transform="matrix(.24,0,0,.24,0,0)" d="M1613.6897 880.8761 1730.8641 998.1339 1703.3352 1025.6824 1586.1608 908.4246 1613.6897 880.8761Z"/>
</clipPath>
<clipPath id="clip_31">
<path transform="matrix(.24,0,0,.24,0,0)" d="M1608.184 886.3858 1687.8626 966.1211 1693.3683 960.6114 1717.0996 1011.90817 1665.8394 988.1599 1671.3451 982.6502 1591.6665 902.9149 1608.184 886.3858Z"/>
</clipPath>
<clipPath id="clip_32">
<path transform="matrix(.24,0,0,.24,0,0)" d="M0 0H2629.1666V2123.3175H0Z" fill-rule="evenodd"/>
</clipPath>
<clipPath id="clip_33">
<path transform="matrix(.24,0,0,.24,0,0)" d="M0 0H2629.1666V2123.3175H0Z"/>
</clipPath>
<clipPath id="clip_34">
<path transform="matrix(.24,0,0,.24,0,0)" d="M0 0H2629.1666V2126.44H0Z"/>
</clipPath>
<clipPath id="clip_35">
<path transform="matrix(.24,0,0,.24,0,0)" d="M936.2893 1400.6683H1101.9989V1439.6278H936.2893Z"/>
</clipPath>
<clipPath id="clip_36">
<path transform="matrix(.24,0,0,.24,0,0)" d="M936.2893 1408.4602H1048.9718V1400.6683L1101.9989 1420.1481 1048.9718 1439.6278V1431.8359H936.2893V1408.4602Z"/>
</clipPath>
<clipPath id="clip_37">
<path transform="matrix(.24,0,0,.24,0,0)" d="M0 0H2629.1666V2123.3175H0Z" fill-rule="evenodd"/>
</clipPath>
<clipPath id="clip_38">
<path transform="matrix(.24,0,0,.24,0,0)" d="M0 0H2629.1666V2123.3175H0Z"/>
</clipPath>
<clipPath id="clip_39">
<path transform="matrix(.24,0,0,.24,0,0)" d="M0 0H2629.1666V2126.44H0Z"/>
</clipPath>
<clipPath id="clip_40">
<path transform="matrix(.24,0,0,.24,0,0)" d="M1115.8472 1601.4822H1156.458V1773.3247H1115.8472Z"/>
</clipPath>
<clipPath id="clip_41">
<path transform="matrix(.24,0,0,.24,0,0)" d="M1148.3358 1601.4822V1718.3351H1156.458L1136.1526 1773.3247 1115.8472 1718.3351H1123.9692V1601.4822H1148.3358Z"/>
</clipPath>
<clipPath id="clip_42">
<path transform="matrix(.24,0,0,.24,0,0)" d="M0 0H2629.1666V2123.3175H0Z" fill-rule="evenodd"/>
</clipPath>
<clipPath id="clip_43">
<path transform="matrix(.24,0,0,.24,0,0)" d="M0 0H2629.1666V2123.3175H0Z"/>
</clipPath>
<clipPath id="clip_44">
<path transform="matrix(.24,0,0,.24,0,0)" d="M0 0H2629.1666V2126.44H0Z"/>
</clipPath>
<clipPath id="clip_45">
<path transform="matrix(.24,0,0,.24,0,0)" d="M1470.691 1605.6383H1511.3019V1777.4808H1470.691Z"/>
</clipPath>
<clipPath id="clip_46">
<path transform="matrix(.24,0,0,.24,0,0)" d="M1503.1797 1605.6383V1722.4912H1511.3019L1490.9965 1777.4808 1470.691 1722.4912H1478.8131V1605.6383H1503.1797Z"/>
</clipPath>
<clipPath id="clip_47">
<path transform="matrix(.24,0,0,.24,0,0)" d="M0 0H2629.1666V2123.3175H0Z" fill-rule="evenodd"/>
</clipPath>
</defs>
<g clip-path="url(#clip_0)">
<path transform="matrix(.7494061,0,0,.7494061,0,0)" d="M0 0H842V681H0Z" fill="#ffffff"/>
</g>
<g clip-path="url(#clip_1)">
<path transform="matrix(.7494061,0,0,.7499395,0,0)" d="M0 0H842V680.5156H0Z" fill="#f2f2f2"/>
</g>
<g clip-path="url(#clip_2)">
<path transform="matrix(.050280595,0,0,.050316357,9.112778,8.699299)" d="M0 0H12291.877V9740.732H0Z" fill="#ffffff"/>
</g>
<g clip-path="url(#clip_3)">
<path transform="matrix(.05028059,0,0,.05031638,119.32793,250.29232)" d="M0 0H1704.7573V1892.4085H0Z" fill="#2d9bf0"/>
<path transform="matrix(.05028059,0,0,.05031638,119.32793,250.29232)" stroke-width="6" stroke-linecap="butt" stroke-miterlimit="4" stroke-linejoin="miter" fill="none" stroke="#2d9bf0" d="M0 0H1704.7573V1892.4085H0Z"/>
</g>
<g clip-path="url(#clip_4)">
<text fill="#ffffff" xml:space="preserve" transform="matrix(.05028059 0 0 .05031638 123.61374 254.58116)" font-size="201" font-family="OpenSans"><tspan y="787.9663" x="147.45623 258.60923 370.36524 466.24226 571.7673">Task-</tspan></text>
<text fill="#ffffff" xml:space="preserve" transform="matrix(.05028059 0 0 .05031638 123.61374 254.58116)" font-size="201" font-family="OpenSans"><tspan y="787.9663" x="636.48928"> </tspan></text>
<text fill="#ffffff" xml:space="preserve" transform="matrix(.05028059 0 0 .05031638 123.61374 254.58116)" font-size="201" font-family="OpenSans"><tspan y="787.9663" x="636.51046 707.46347 789.47146 901.2274 996.90347 1102.4285 1153.2815 1276.6956 1386.8435">tracking&#x00a0;</tspan></text>
<text fill="#ffffff" xml:space="preserve" transform="matrix(.05028059 0 0 .05031638 123.61374 254.58116)" font-size="201" font-family="OpenSans"><tspan y="1061.9663" x="441.79167 537.66867 650.4296 732.4376 833.1386 883.99166 979.66769">service</tspan></text>
</g>
<g clip-path="url(#clip_5)">
<path transform="matrix(.05028059,0,0,.05031638,281.61933,283.27464)" d="M0 0H1704.7573V1892.4085H0Z" fill="#2d9bf0"/>
<path transform="matrix(.05028059,0,0,.05031638,281.61933,283.27464)" stroke-width="6" stroke-linecap="butt" stroke-miterlimit="4" stroke-linejoin="miter" fill="none" stroke="#2d9bf0" d="M0 0H1704.7573V1892.4085H0Z"/>
</g>
<g clip-path="url(#clip_6)">
<text fill="#ffffff" xml:space="preserve" transform="matrix(.05028059 0 0 .05031638 285.90513 287.56355)" font-size="201" font-family="OpenSans"><tspan y="787.9663" x="246.14055 373.37355 469.04954 564.7255 686.1295 809.5435 932.9575 1003.9105 1054.7636 1178.1775 1288.3255">Accounting&#x00a0;</tspan></text>
<text fill="#ffffff" xml:space="preserve" transform="matrix(.05028059 0 0 .05031638 285.90513 287.56355)" font-size="201" font-family="OpenSans"><tspan y="1061.9663" x="441.79167 537.66867 650.4296 732.4376 833.1386 883.99166 979.66769">service</tspan></text>
</g>
<g clip-path="url(#clip_7)">
<path transform="matrix(.05028059,0,0,.05031638,436.7314,250.29232)" d="M0 0H1704.7573V1892.4085H0Z" fill="#2d9bf0"/>
<path transform="matrix(.05028059,0,0,.05031638,436.7314,250.29232)" stroke-width="6" stroke-linecap="butt" stroke-miterlimit="4" stroke-linejoin="miter" fill="none" stroke="#2d9bf0" d="M0 0H1704.7573V1892.4085H0Z"/>
</g>
<g clip-path="url(#clip_8)">
<text fill="#ffffff" xml:space="preserve" transform="matrix(.05028059 0 0 .05031638 441.0172 254.58116)" font-size="201" font-family="OpenSans"><tspan y="924.9663" x="1.7606642 128.99367 252.40767 364.1637 415.0167 516.3207 587.2737 638.1267 733.80276 829.67977 881.93978 977.8168 1090.5778 1172.5858 1273.2869 1324.1399 1419.8159">Analytics service</tspan></text>
<text fill="#1a1a1a" xml:space="preserve" transform="matrix(1.0343435 0 0 1.0350796 221.8317 66.56463)" font-size="14" font-family="OpenSans"><tspan y="14" x="0 8.834001 17.710001 26.586003 33.922006 42.504007 50.960008 59.836008 68.712009 79.492008 87.34601 90.98601 98.25201 106.70801 116.99801 127.28801 134.34401 143.22002 152.09603 159.36203 167.14603 175.91004 184.78604">&#x0421;&#x0438;&#x043d;&#x0445;&#x0440;&#x043e;&#x043d;&#x043d;&#x044b;&#x0435; &#x043a;&#x043e;&#x043c;&#x043c;&#x0443;&#x043d;&#x0438;&#x043a;&#x0430;&#x0446;&#x0438;&#x0438;</tspan></text>
</g>
<g clip-path="url(#clip_9)">
<g clip-path="url(#clip_10)">
<g clip-path="url(#clip_11)">
<g clip-path="url(#clip_12)">
<path transform="matrix(.05028059,0,0,.05031638,223.45043,288.90669)" d="M0 37.165945H537.85787V0L790.96749 92.914859 537.85787 185.82971V148.66378H0V37.165945Z" fill="#2d9bf0" fill-rule="evenodd"/>
<path transform="matrix(.05028059,0,0,.05031638,223.45043,288.90669)" stroke-width="4" stroke-linecap="butt" stroke-miterlimit="4" stroke-linejoin="miter" fill="none" stroke="#1a1a1a" d="M0 37.165945H537.85787V0L790.96749 92.914859 537.85787 185.82971V148.66378H0V37.165945Z"/>
</g>
</g>
</g>
</g>
<g clip-path="url(#clip_13)">
<g clip-path="url(#clip_14)">
<g clip-path="url(#clip_15)">
<g clip-path="url(#clip_16)">
<path transform="matrix(-.05028059,-.0000000000000000061619796,.000000000000000006157596,-.05031638,170.73665,196.5427)" d="M0 37.165945H537.85787V0L790.96749 92.914859 537.85787 185.82971V148.66378H0V37.165945Z" fill="#2d9bf0" fill-rule="evenodd"/>
<path transform="matrix(-.05028059,-.0000000000000000061619796,.000000000000000006157596,-.05031638,170.73665,196.5427)" stroke-width="4" stroke-linecap="butt" stroke-miterlimit="4" stroke-linejoin="miter" fill="none" stroke="#1a1a1a" d="M0 37.165945H537.85787V0L790.96749 92.914859 537.85787 185.82971V148.66378H0V37.165945Z"/>
</g>
</g>
</g>
</g>
<g clip-path="url(#clip_17)">
<path transform="matrix(.05028059,0,0,.05031638,279.82075,107.413829)" d="M0 0H1704.7573V1892.4085H0Z" fill="#2d9bf0"/>
<path transform="matrix(.05028059,0,0,.05031638,279.82075,107.413829)" stroke-width="6" stroke-linecap="butt" stroke-miterlimit="4" stroke-linejoin="miter" fill="none" stroke="#2d9bf0" d="M0 0H1704.7573V1892.4085H0Z"/>
</g>
<g clip-path="url(#clip_18)">
<text fill="#ffffff" xml:space="preserve" transform="matrix(.05028059 0 0 .05031638 284.10658 111.7027)" font-size="201" font-family="OpenSans"><tspan y="924.9663" x="193.24065 320.47364 443.88764 514.84066 638.25466 690.51467 786.39169 899.15267 981.16067 1081.8617 1132.7147 1228.3908">Auth service</tspan></text>
</g>
<g clip-path="url(#clip_19)">
<g clip-path="url(#clip_20)">
<g clip-path="url(#clip_21)">
<g clip-path="url(#clip_22)">
<path transform="matrix(-.000000000000000009236395,.05031638,-.05028059,-.000000000000000009242969,327.35459,216.49958)" d="M0 37.165945H537.85787V0L790.96749 92.914859 537.85787 185.82971V148.66378H0V37.165945Z" fill="#2d9bf0" fill-rule="evenodd"/>
<path transform="matrix(-.000000000000000009236395,.05031638,-.05028059,-.000000000000000009242969,327.35459,216.49958)" stroke-width="4" stroke-linecap="butt" stroke-miterlimit="4" stroke-linejoin="miter" fill="none" stroke="#1a1a1a" d="M0 37.165945H537.85787V0L790.96749 92.914859 537.85787 185.82971V148.66378H0V37.165945Z"/>
</g>
</g>
</g>
</g>
<g clip-path="url(#clip_23)">
<text fill="#1a1a1a" xml:space="preserve" transform="matrix(.7182941 0 0 .7188053 273.5466 202.2946)" font-size="14" font-family="OpenSans"><tspan y="14" x="0 8.862 16.828001 23.366002 31.822003 40.404005 49.280004 56.042005 63.826005 72.590007 81.466 89.236 92.876 103.082 111.538 120.232 127.288 133.28">&#x0410;&#x0432;&#x0442;&#x043e;&#x0440;&#x0438;&#x0437;&#x0430;&#x0446;&#x0438;&#x044f; &#x041f;&#x043e;&#x043f;&#x0443;&#x0433;&#x0430;</tspan></text>
</g>
<g clip-path="url(#clip_24)">
<g clip-path="url(#clip_25)">
<g clip-path="url(#clip_26)">
<g clip-path="url(#clip_27)">
<path transform="matrix(-.035553747,.03557905,-.035553747,-.03557905,265.18904,217.42197)" d="M0 37.165945H537.85787V0L790.96749 92.914859 537.85787 185.82971V148.66378H0V37.165945Z" fill="#2d9bf0" fill-rule="evenodd"/>
<path transform="matrix(-.035553747,.03557905,-.035553747,-.03557905,265.18904,217.42197)" stroke-width="4" stroke-linecap="butt" stroke-miterlimit="4" stroke-linejoin="miter" fill="none" stroke="#1a1a1a" d="M0 37.165945H537.85787V0L790.96749 92.914859 537.85787 185.82971V148.66378H0V37.165945Z"/>
</g>
</g>
</g>
</g>
<g clip-path="url(#clip_28)">
<g clip-path="url(#clip_29)">
<g clip-path="url(#clip_30)">
<g clip-path="url(#clip_31)">
<path transform="matrix(.035553747,.03557905,-.035553747,.03557905,387.28553,211.41027)" d="M0 37.165945H537.85787V0L790.96749 92.914859 537.85787 185.82971V148.66378H0V37.165945Z" fill="#2d9bf0" fill-rule="evenodd"/>
<path transform="matrix(.035553747,.03557905,-.035553747,.03557905,387.28553,211.41027)" stroke-width="4" stroke-linecap="butt" stroke-miterlimit="4" stroke-linejoin="miter" fill="none" stroke="#1a1a1a" d="M0 37.165945H537.85787V0L790.96749 92.914859 537.85787 185.82971V148.66378H0V37.165945Z"/>
</g>
</g>
</g>
</g>
<g clip-path="url(#clip_32)">
<text fill="#1a1a1a" xml:space="preserve" transform="matrix(.7182941 0 0 .7188053 209.53235 274.80625)" font-size="14" font-family="OpenSans"><tspan y="14" x="0 8.862 15.526001 22.19 29.974 38.850004 47.726 51.366 57.904 65.688 72.352008 79.618007 88.494">&#x0410;&#x0441;&#x0441;&#x0430;&#x0439;&#x043d; &#x0442;&#x0430;&#x0441;&#x043a;&#x0438;&#x00a0;</tspan></text>
</g>
<g clip-path="url(#clip_33)">
<g clip-path="url(#clip_34)">
<g clip-path="url(#clip_35)">
<g clip-path="url(#clip_36)">
<path transform="matrix(.05028059,0,0,.05031638,224.70943,336.1604)" d="M0 37.165945H537.85787V0L790.96749 92.914859 537.85787 185.82971V148.66378H0V37.165945Z" fill="#2d9bf0" fill-rule="evenodd"/>
<path transform="matrix(.05028059,0,0,.05031638,224.70943,336.1604)" stroke-width="4" stroke-linecap="butt" stroke-miterlimit="4" stroke-linejoin="miter" fill="none" stroke="#1a1a1a" d="M0 37.165945H537.85787V0L790.96749 92.914859 537.85787 185.82971V148.66378H0V37.165945Z"/>
</g>
</g>
</g>
</g>
<g clip-path="url(#clip_37)">
<text fill="#1a1a1a" xml:space="preserve" transform="matrix(.57463517 0 0 .5750442 217.55582 315.05284)" font-size="14" font-family="OpenSans"><tspan y="14" x="0 9.0720009 19.852002 28.546002 37.002004 44.996004 53.872 61.726 70.602008 79.478008 87.33201">&#x0412;&#x044b;&#x043f;&#x043e;&#x043b;&#x043d;&#x0435;&#x043d;&#x0438;&#x0435;&#x00a0;</tspan></text>
<text fill="#1a1a1a" xml:space="preserve" transform="matrix(.57463517 0 0 .5750442 217.55582 315.05284)" font-size="14" font-family="OpenSans"><tspan y="34" x="0 6.538 14.3220009 20.986 28.252">&#x0442;&#x0430;&#x0441;&#x043a;&#x0438;</tspan></text>
<text fill="#1a1a1a" xml:space="preserve" transform="matrix(.7182941 0 0 .7188053 180.81511 182.51119)" font-size="14" font-family="OpenSans"><tspan y="14" x="0 10.206 18.788002 27.244004 33.908006">&#x041f;&#x0440;&#x043e;&#x0441;&#x0442;</tspan></text>
</g>
<g clip-path="url(#clip_38)">
<g clip-path="url(#clip_39)">
<g clip-path="url(#clip_40)">
<g clip-path="url(#clip_41)">
<path transform="matrix(.000000000000000003078798,.05031638,-.05028059,.0000000000000000030809898,277.54994,384.3557)" d="M0 38.768896H557.3671V0L819.6576 96.92223 557.3671 193.84447V155.07558H0V38.768896Z" fill="#2d9bf0" fill-rule="evenodd"/>
<path transform="matrix(.000000000000000003078798,.05031638,-.05028059,.0000000000000000030809898,277.54994,384.3557)" stroke-width="4" stroke-linecap="butt" stroke-miterlimit="4" stroke-linejoin="miter" fill="none" stroke="#1a1a1a" d="M0 38.768896H557.3671V0L819.6576 96.92223 557.3671 193.84447V155.07558H0V38.768896Z"/>
</g>
</g>
</g>
</g>
<g clip-path="url(#clip_42)">
<text fill="#1a1a1a" xml:space="preserve" transform="matrix(.57463517 0 0 .5750442 285.48948 389.95677)" font-size="14" font-family="OpenSans"><tspan y="14" x="0 8.428 16.212002 22.876002 31.388003 39.242006 45.780008">&#x0420;&#x0430;&#x0441;&#x0447;&#x0435;&#x0442;&#x00a0;</tspan></text>
<text fill="#1a1a1a" xml:space="preserve" transform="matrix(.57463517 0 0 .5750442 285.48948 389.95677)" font-size="14" font-family="OpenSans"><tspan y="34" x="0 8.344 16.128 24.122002 31.906002 40.782 47.446004 55.230005">&#x0431;&#x0430;&#x043b;&#x0430;&#x043d;&#x0441;&#x0430;&#x00a0;</tspan></text>
<text fill="#1a1a1a" xml:space="preserve" transform="matrix(.57463517 0 0 .5750442 285.48948 389.95677)" font-size="14" font-family="OpenSans"><tspan y="54" x="0 8.582001 16.366002 24.710001 33.166 39.704004 47.474004 53.466005 57.106004 65.982">&#x0440;&#x0430;&#x0431;&#x043e;&#x0442;&#x044f;&#x0433; &#x0438;&#x00a0;</tspan></text>
<text fill="#1a1a1a" xml:space="preserve" transform="matrix(.57463517 0 0 .5750442 285.48948 389.95677)" font-size="14" font-family="OpenSans"><tspan y="74" x="0 8.582001 15.6380009 22.904002 31.36 39.326 47.782 55.79 63.56">&#x0440;&#x0443;&#x043a;&#x043e;&#x0432;&#x043e;&#x0434;&#x044f;&#x0433;</tspan></text>
</g>
<g clip-path="url(#clip_43)">
<g clip-path="url(#clip_44)">
<g clip-path="url(#clip_45)">
<g clip-path="url(#clip_46)">
<path transform="matrix(.000000000000000003078798,.05031638,-.05028059,.0000000000000000030809898,362.71244,385.35319)" d="M0 38.768896H557.3671V0L819.6576 96.92223 557.3671 193.84447V155.07558H0V38.768896Z" fill="#2d9bf0" fill-rule="evenodd"/>
<path transform="matrix(.000000000000000003078798,.05031638,-.05028059,.0000000000000000030809898,362.71244,385.35319)" stroke-width="4" stroke-linecap="butt" stroke-miterlimit="4" stroke-linejoin="miter" fill="none" stroke="#1a1a1a" d="M0 38.768896H557.3671V0L819.6576 96.92223 557.3671 193.84447V155.07558H0V38.768896Z"/>
</g>
</g>
</g>
</g>
<g clip-path="url(#clip_47)">
<text fill="#1a1a1a" xml:space="preserve" transform="matrix(.57463517 0 0 .5750442 370.65199 390.9542)" font-size="14" font-family="OpenSans"><tspan y="14" x="0 10.906 19.25 28.126 35.182 43.176 51.03 59.906 68.782 76.551998 80.19199 89.06799">&#x041e;&#x0431;&#x043d;&#x0443;&#x043b;&#x0435;&#x043d;&#x0438;&#x044f; &#x0438;&#x00a0;</tspan></text>
<text fill="#1a1a1a" xml:space="preserve" transform="matrix(.57463517 0 0 .5750442 370.65199 390.9542)" font-size="14" font-family="OpenSans"><tspan y="34" x="0 8.694 16.548 25.130002 32.984 41.86 50.316 56.980005 67.76">&#x043f;&#x0435;&#x0440;&#x0435;&#x043d;&#x043e;&#x0441;&#x044b;&#x00a0;</tspan></text>
<text fill="#1a1a1a" xml:space="preserve" transform="matrix(.57463517 0 0 .5750442 370.65199 390.9542)" font-size="14" font-family="OpenSans"><tspan y="54" x="0 8.344 16.128 24.122002 31.906002 40.782 47.446004 55.902006">&#x0431;&#x0430;&#x043b;&#x0430;&#x043d;&#x0441;&#x043e;&#x0432;</tspan></text>
</g>
</svg>
